<svg width="17" height="17" viewBox="0 0 17 17" fill="none" xmlns="http://www.w3.org/2000/svg">
<path fill-rule="evenodd" clip-rule="evenodd" d="M-nan -nanL4.74996 2.24994H12.2498C13.6268 2.24994 14.7497 3.37295 14.7497 4.74984V12.2497C14.7497 13.6266 13.6267 14.7496 12.2498 14.7496H4.74996C3.37297 14.7496 2.25006 13.6265 2.25006 12.2497V4.74984C2.25006 3.37285 3.37307 2.24994 4.74996 2.24994L-nan -nanZ" fill="#4D4948" stroke="#4D4948" stroke-width="0.221746"/>
<path fill-rule="evenodd" clip-rule="evenodd" d="M-nan -nanL5.99989 4.74994H10.9998C11.6883 4.74994 12.2497 5.31142 12.2497 5.99989V10.9998C12.2497 11.6883 11.6883 12.2497 10.9998 12.2497H5.99989C5.3114 12.2497 4.74994 11.6883 4.74994 10.9998V5.99989C4.74994 5.3114 5.31142 4.74994 5.99989 4.74994L-nan -nanZ" fill="#B6DDC7" stroke="#00923F" stroke-width="0.887173"/>
<path d="M2.24993 10.9998H1" stroke="white" stroke-width="0.887173" stroke-linecap="round"/>
<path d="M2.24993 9.74885H1" stroke="white" stroke-width="0.887173" stroke-linecap="round"/>
<path d="M2.24993 7.24984H1" stroke="white" stroke-width="0.887173" stroke-linecap="round"/>
<path d="M2.24993 8.4988H1" stroke="white" stroke-width="0.887173" stroke-linecap="round"/>
<path d="M2.24993 5.9989H1" stroke="white" stroke-width="0.887173" stroke-linecap="round"/>
<path d="M2.24993 4.74895H1" stroke="white" stroke-width="0.887173" stroke-linecap="round"/>
<path d="M2.24993 12.2493H1" stroke="white" stroke-width="0.887173" stroke-linecap="round"/>
<path d="M16 10.9998H14.7494" stroke="white" stroke-width="0.887173" stroke-linecap="round"/>
<path d="M16 9.74884H14.7494" stroke="white" stroke-width="0.887173" stroke-linecap="round"/>
<path d="M16 7.24983H14.7494" stroke="white" stroke-width="0.887173" stroke-linecap="round"/>
<path d="M16 8.49881H14.7494" stroke="white" stroke-width="0.887173" stroke-linecap="round"/>
<path d="M16 5.9989H14.7494" stroke="white" stroke-width="0.887173" stroke-linecap="round"/>
<path d="M16 4.74895H14.7494" stroke="white" stroke-width="0.887173" stroke-linecap="round"/>
<path d="M16 12.2493H14.7494" stroke="white" stroke-width="0.887173" stroke-linecap="round"/>
<path d="M5.99988 16V14.7495" stroke="white" stroke-width="0.887173" stroke-linecap="round"/>
<path d="M7.25085 16V14.7495" stroke="white" stroke-width="0.887173" stroke-linecap="round"/>
<path d="M9.74988 16V14.7495" stroke="white" stroke-width="0.887173" stroke-linecap="round"/>
<path d="M8.50076 16V14.7495" stroke="white" stroke-width="0.887173" stroke-linecap="round"/>
<path d="M11.0008 16V14.7495" stroke="white" stroke-width="0.887173" stroke-linecap="round"/>
<path d="M12.2503 16V14.7495" stroke="white" stroke-width="0.887173" stroke-linecap="round"/>
<path d="M4.75043 16V14.7495" stroke="white" stroke-width="0.887173" stroke-linecap="round"/>
<path d="M5.99939 2.24993V1" stroke="white" stroke-width="0.887173" stroke-linecap="round"/>
<path d="M7.25037 2.24993V1" stroke="white" stroke-width="0.887173" stroke-linecap="round"/>
<path d="M9.74927 2.24993V1" stroke="white" stroke-width="0.887173" stroke-linecap="round"/>
<path d="M8.50031 2.24993V1" stroke="white" stroke-width="0.887173" stroke-linecap="round"/>
<path d="M11.0008 2.24993V1" stroke="white" stroke-width="0.887173" stroke-linecap="round"/>
<path d="M12.2503 2.24993V1" stroke="white" stroke-width="0.887173" stroke-linecap="round"/>
<path d="M4.74994 2.24993V1" stroke="white" stroke-width="0.887173" stroke-linecap="round"/>
</svg>
